<mxfile host="Electron" modified="2024-04-09T08:38:33.695Z" agent="Mozilla/5.0 (Windows NT 10.0; Win64; x64) AppleWebKit/537.36 (KHTML, like Gecko) draw.io/24.1.0 Chrome/120.0.6099.109 Electron/28.1.0 Safari/537.36" etag="OfDkrtf3BzNUfKdg4C3G" version="24.1.0" type="device">
  <diagram name="第 1 页" id="7KmbjUh2WnVlO50Lf56E">
    <mxGraphModel dx="2074" dy="1196" grid="1" gridSize="10" guides="1" tooltips="1" connect="1" arrows="1" fold="1" page="1" pageScale="1" pageWidth="2336" pageHeight="1654" math="0" shadow="0">
      <root>
        <mxCell id="0" />
        <mxCell id="1" parent="0" />
        <mxCell id="eA8qhL2t2WfHHc9juz8s-13" style="edgeStyle=orthogonalEdgeStyle;rounded=0;orthogonalLoop=1;jettySize=auto;html=1;exitX=0.5;exitY=1;exitDx=0;exitDy=0;exitPerimeter=0;entryX=0.5;entryY=0;entryDx=0;entryDy=0;" edge="1" parent="1" source="eA8qhL2t2WfHHc9juz8s-1" target="eA8qhL2t2WfHHc9juz8s-2">
          <mxGeometry relative="1" as="geometry" />
        </mxCell>
        <mxCell id="eA8qhL2t2WfHHc9juz8s-1" value="开始" style="strokeWidth=2;html=1;shape=mxgraph.flowchart.start_2;whiteSpace=wrap;" vertex="1" parent="1">
          <mxGeometry x="365" y="70" width="100" height="100" as="geometry" />
        </mxCell>
        <mxCell id="eA8qhL2t2WfHHc9juz8s-14" style="edgeStyle=orthogonalEdgeStyle;rounded=0;orthogonalLoop=1;jettySize=auto;html=1;exitX=0.5;exitY=1;exitDx=0;exitDy=0;" edge="1" parent="1" source="eA8qhL2t2WfHHc9juz8s-2" target="eA8qhL2t2WfHHc9juz8s-3">
          <mxGeometry relative="1" as="geometry" />
        </mxCell>
        <mxCell id="eA8qhL2t2WfHHc9juz8s-2" value="avcodec_open2" style="rounded=0;whiteSpace=wrap;html=1;fontSize=16;" vertex="1" parent="1">
          <mxGeometry x="345" y="230" width="140" height="60" as="geometry" />
        </mxCell>
        <mxCell id="eA8qhL2t2WfHHc9juz8s-16" style="edgeStyle=orthogonalEdgeStyle;rounded=0;orthogonalLoop=1;jettySize=auto;html=1;exitX=0.5;exitY=1;exitDx=0;exitDy=0;entryX=0.5;entryY=0;entryDx=0;entryDy=0;" edge="1" parent="1" source="eA8qhL2t2WfHHc9juz8s-3" target="eA8qhL2t2WfHHc9juz8s-6">
          <mxGeometry relative="1" as="geometry" />
        </mxCell>
        <mxCell id="eA8qhL2t2WfHHc9juz8s-3" value="alloc_audio_frame" style="rounded=0;whiteSpace=wrap;html=1;fontSize=18;" vertex="1" parent="1">
          <mxGeometry x="310" y="330" width="210" height="60" as="geometry" />
        </mxCell>
        <mxCell id="eA8qhL2t2WfHHc9juz8s-5" value="av_frame_alloc&lt;div&gt;设置采样格式、采样率、通道布局、一帧数据量&lt;/div&gt;&lt;div&gt;av_frame_get_buffer&lt;br&gt;&lt;/div&gt;" style="text;html=1;align=center;verticalAlign=middle;resizable=0;points=[];autosize=1;strokeColor=none;fillColor=none;fontSize=16;" vertex="1" parent="1">
          <mxGeometry x="560" y="325" width="360" height="70" as="geometry" />
        </mxCell>
        <mxCell id="eA8qhL2t2WfHHc9juz8s-17" style="edgeStyle=orthogonalEdgeStyle;rounded=0;orthogonalLoop=1;jettySize=auto;html=1;exitX=0.5;exitY=1;exitDx=0;exitDy=0;entryX=0.5;entryY=0;entryDx=0;entryDy=0;" edge="1" parent="1" source="eA8qhL2t2WfHHc9juz8s-6" target="eA8qhL2t2WfHHc9juz8s-7">
          <mxGeometry relative="1" as="geometry" />
        </mxCell>
        <mxCell id="eA8qhL2t2WfHHc9juz8s-6" value="avcodec_parameters_from_context" style="rounded=0;whiteSpace=wrap;html=1;fontSize=18;" vertex="1" parent="1">
          <mxGeometry x="260" y="430" width="310" height="60" as="geometry" />
        </mxCell>
        <mxCell id="eA8qhL2t2WfHHc9juz8s-18" style="edgeStyle=orthogonalEdgeStyle;rounded=0;orthogonalLoop=1;jettySize=auto;html=1;exitX=0.5;exitY=1;exitDx=0;exitDy=0;entryX=0.5;entryY=0;entryDx=0;entryDy=0;" edge="1" parent="1" source="eA8qhL2t2WfHHc9juz8s-7" target="eA8qhL2t2WfHHc9juz8s-9">
          <mxGeometry relative="1" as="geometry" />
        </mxCell>
        <mxCell id="eA8qhL2t2WfHHc9juz8s-7" value="swr_alloc" style="rounded=0;whiteSpace=wrap;html=1;fontSize=18;" vertex="1" parent="1">
          <mxGeometry x="355" y="540" width="120" height="60" as="geometry" />
        </mxCell>
        <mxCell id="eA8qhL2t2WfHHc9juz8s-8" value="关联编码器" style="text;html=1;align=center;verticalAlign=middle;resizable=0;points=[];autosize=1;strokeColor=none;fillColor=none;" vertex="1" parent="1">
          <mxGeometry x="510" y="238" width="80" height="30" as="geometry" />
        </mxCell>
        <mxCell id="eA8qhL2t2WfHHc9juz8s-19" style="edgeStyle=orthogonalEdgeStyle;rounded=0;orthogonalLoop=1;jettySize=auto;html=1;exitX=0.5;exitY=1;exitDx=0;exitDy=0;entryX=0.5;entryY=0;entryDx=0;entryDy=0;" edge="1" parent="1" source="eA8qhL2t2WfHHc9juz8s-9" target="eA8qhL2t2WfHHc9juz8s-11">
          <mxGeometry relative="1" as="geometry" />
        </mxCell>
        <mxCell id="eA8qhL2t2WfHHc9juz8s-9" value="av_opt_set_int" style="rounded=0;whiteSpace=wrap;html=1;fontSize=18;" vertex="1" parent="1">
          <mxGeometry x="347.5" y="640" width="135" height="60" as="geometry" />
        </mxCell>
        <mxCell id="eA8qhL2t2WfHHc9juz8s-11" value="swr_init" style="rounded=0;whiteSpace=wrap;html=1;fontSize=18;" vertex="1" parent="1">
          <mxGeometry x="355" y="750" width="120" height="60" as="geometry" />
        </mxCell>
        <mxCell id="eA8qhL2t2WfHHc9juz8s-12" value="end" style="strokeWidth=2;html=1;shape=mxgraph.flowchart.terminator;whiteSpace=wrap;fontSize=18;" vertex="1" parent="1">
          <mxGeometry x="365" y="860" width="100" height="60" as="geometry" />
        </mxCell>
        <mxCell id="eA8qhL2t2WfHHc9juz8s-20" style="edgeStyle=orthogonalEdgeStyle;rounded=0;orthogonalLoop=1;jettySize=auto;html=1;exitX=0.5;exitY=1;exitDx=0;exitDy=0;entryX=0.5;entryY=0;entryDx=0;entryDy=0;entryPerimeter=0;" edge="1" parent="1" source="eA8qhL2t2WfHHc9juz8s-11" target="eA8qhL2t2WfHHc9juz8s-12">
          <mxGeometry relative="1" as="geometry" />
        </mxCell>
      </root>
    </mxGraphModel>
  </diagram>
</mxfile>
